<svg width="173" height="23" viewBox="0 0 173 23" fill="none" xmlns="http://www.w3.org/2000/svg">
<path d="M4.46 22.78C3.14 22.78 2.2 22.41 1.64 21.67C1.08 20.91 0.8 19.79 0.8 18.31C0.8 16.81 1.43 12.58 2.69 5.62L1.1 2.41C3.36 0.949999 5.42 0.22 7.28 0.22C8.82 0.22 9.59 1.16 9.59 3.04C9.59 3.6 9.2 5.94 8.42 10.06C7.66 14.18 7.28 16.8 7.28 17.92H10.52C12.04 17.7 13.57 17.31 15.11 16.75C15.23 17.11 15.29 17.6 15.29 18.22C15.29 19.4 14.94 20.45 14.24 21.37C13.56 22.29 12.61 22.75 11.39 22.75C10.57 22.75 9.15 22.53 7.13 22.09C6.29 22.55 5.4 22.78 4.46 22.78ZM25.3948 22.75C22.6548 22.75 20.5348 22.04 19.0348 20.62C17.5548 19.2 16.8148 17.28 16.8148 14.86C16.8148 11.64 17.9148 9.03 20.1148 7.03C22.3348 5.01 25.1148 4 28.4548 4C30.3148 4 31.7248 4.42 32.6848 5.26C33.6448 6.08 34.1248 7.17 34.1248 8.53C34.1248 10.39 33.2148 11.94 31.3948 13.18C29.5948 14.4 26.8048 15.02 23.0248 15.04C23.0848 16.32 23.3748 17.33 23.8948 18.07C24.4148 18.79 25.0648 19.15 25.8448 19.15C26.6248 19.15 27.2948 18.89 27.8548 18.37C28.4348 17.85 28.7248 17 28.7248 15.82C31.6448 15.82 33.1048 16.51 33.1048 17.89C33.1048 19.07 32.3848 20.18 30.9448 21.22C29.5048 22.24 27.6548 22.75 25.3948 22.75ZM27.9448 7.51C26.9248 7.51 25.9848 8.02 25.1248 9.04C24.2848 10.06 23.6748 11.26 23.2948 12.64C25.2948 12.48 26.7948 12.03 27.7948 11.29C28.8148 10.53 29.3248 9.73 29.3248 8.89C29.3248 8.49 29.1948 8.16 28.9348 7.9C28.6948 7.64 28.3648 7.51 27.9448 7.51ZM36.0816 12.79C36.0816 11.39 36.3816 9.97 36.9816 8.53C37.5816 7.07 38.4316 5.72 39.5316 4.48C40.6316 3.24 42.0616 2.23 43.8216 1.45C45.6016 0.649999 47.4316 0.249999 49.3116 0.249999C51.2116 0.249999 52.6916 0.599999 53.7516 1.3C54.8316 2 55.3716 2.97 55.3716 4.21C55.3716 5.45 54.9616 6.42 54.1416 7.12C53.3416 7.8 52.4216 8.14 51.3816 8.14C50.3416 8.14 49.4016 7.92 48.5616 7.48C47.7416 7.02 47.0816 6.37 46.5816 5.53C45.5016 6.05 44.5716 7.07 43.7916 8.59C43.0116 10.11 42.6216 11.64 42.6216 13.18C42.6216 14.7 42.8716 15.91 43.3716 16.81C43.8716 17.69 44.5816 18.13 45.5016 18.13C46.4216 18.13 47.2316 17.66 47.9316 16.72C48.6516 15.78 49.0116 14.65 49.0116 13.33C51.0316 13.33 52.4716 13.49 53.3316 13.81C54.2116 14.13 54.6516 14.82 54.6516 15.88C54.6516 17.54 53.7516 19.1 51.9516 20.56C50.1516 22.02 47.8916 22.75 45.1716 22.75C42.4516 22.75 40.2516 21.91 38.5716 20.23C36.9116 18.55 36.0816 16.07 36.0816 12.79ZM71.8002 6.28C72.9202 6.28 73.8802 6.73 74.6802 7.63C75.5002 8.53 75.9102 9.84 75.9102 11.56C75.9102 13.26 75.6102 14.84 75.0102 16.3C74.4102 17.74 73.6202 18.92 72.6402 19.84C71.6602 20.76 70.5502 21.48 69.3102 22C68.0702 22.5 66.8002 22.75 65.5002 22.75C62.8802 22.75 60.8102 22.03 59.2902 20.59C57.7702 19.15 57.0102 17.24 57.0102 14.86C57.0102 11.64 58.0402 9.03 60.1002 7.03C62.1802 5.01 64.8202 4 68.0202 4C68.7402 4 69.4602 4.08 70.1802 4.24C70.4002 4.9 70.5202 5.65 70.5402 6.49C70.9602 6.35 71.3802 6.28 71.8002 6.28ZM68.1102 10.45C68.1102 9.89 68.2402 9.26 68.5002 8.56C68.7802 7.86 69.2202 7.3 69.8202 6.88C67.1802 7.44 65.3602 8.51 64.3602 10.09C63.5002 11.45 63.0702 12.85 63.0702 14.29C63.0702 15.73 63.3602 16.89 63.9402 17.77C64.5402 18.63 65.3002 19.06 66.2202 19.06C68.2602 19.06 69.7002 17.73 70.5402 15.07C68.9202 14.07 68.1102 12.53 68.1102 10.45ZM83.7955 22.75C82.0355 22.75 80.8055 22.32 80.1055 21.46C79.4055 20.6 79.0555 19.52 79.0555 18.22C79.0555 16.9 79.2755 15.1 79.7155 12.82C80.1555 10.54 80.3755 8.89 80.3755 7.87C80.3755 6.85 80.1655 6.05 79.7455 5.47C81.6055 4.49 83.1755 4 84.4555 4C85.2755 4 85.8655 4.17 86.2255 4.51C86.6055 4.83 86.7955 5.36 86.7955 6.1C86.7955 6.84 86.4855 8.66 85.8655 11.56C85.2655 14.44 84.9655 16.22 84.9655 16.9C84.9655 17.58 85.1555 18.12 85.5355 18.52C85.9155 18.9 86.4155 19.09 87.0355 19.09C87.6555 19.09 88.3155 18.85 89.0155 18.37C89.7155 17.87 90.2855 17.17 90.7255 16.27C91.0055 14.65 91.5555 12.09 92.3755 8.59L90.5755 6.19C92.5955 4.73 94.5155 4 96.3355 4C97.2355 4 97.8755 4.17 98.2555 4.51C98.6555 4.83 98.8555 5.33 98.8555 6.01C98.8555 6.67 98.4855 8.58 97.7455 11.74C97.0255 14.9 96.6655 17.15 96.6655 18.49C96.6655 19.81 96.9755 20.74 97.5955 21.28C96.4755 22.26 95.2955 22.75 94.0555 22.75C92.8355 22.75 91.9555 22.48 91.4155 21.94C90.8755 21.4 90.6055 20.69 90.6055 19.81L90.3055 19.66C89.6455 20.62 88.7255 21.38 87.5455 21.94C86.3855 22.48 85.1355 22.75 83.7955 22.75ZM101.666 19.03C101.666 18.23 101.866 16.68 102.266 14.38C102.686 12.08 103.116 9.98 103.556 8.08L101.996 5.68C104.496 4.56 106.246 4 107.246 4C108.266 4 108.776 4.64 108.776 5.92C108.776 6.62 108.446 8.08 107.786 10.3L108.086 10.45C109.526 6.15 111.316 4 113.456 4C114.436 4 115.186 4.3 115.706 4.9C116.226 5.5 116.486 6.17 116.486 6.91C116.486 8.01 116.076 8.95 115.256 9.73C114.436 10.51 113.206 10.9 111.566 10.9C109.086 10.9 107.846 13.45 107.846 18.55C107.846 19.79 108.056 20.7 108.476 21.28C107.236 22.26 106.096 22.75 105.056 22.75C102.796 22.75 101.666 21.51 101.666 19.03ZM127.115 7.99C126.375 8.21 125.785 8.53 125.345 8.95C124.905 9.35 124.515 9.93 124.175 10.69C127.555 11.19 129.935 11.91 131.315 12.85C132.695 13.79 133.385 15.13 133.385 16.87C133.385 17.97 133.075 18.93 132.455 19.75C131.835 20.55 131.055 21.16 130.115 21.58C128.275 22.36 126.465 22.75 124.685 22.75C119.625 22.75 117.095 21.66 117.095 19.48C117.095 18.38 117.585 17.28 118.565 16.18C119.065 16.88 119.815 17.48 120.815 17.98C121.835 18.48 122.825 18.73 123.785 18.73C125.445 18.73 126.445 18 126.785 16.54C123.745 16.18 121.545 15.5 120.185 14.5C118.825 13.5 118.145 12.09 118.145 10.27C118.145 8.83 118.615 7.62 119.555 6.64C120.515 5.66 121.695 4.98 123.095 4.6C124.515 4.2 126.105 4 127.865 4C129.645 4 131.105 4.34 132.245 5.02C133.405 5.68 133.985 6.49 133.985 7.45C133.985 8.41 133.645 9.15 132.965 9.67C132.305 10.19 131.575 10.45 130.775 10.45C129.995 10.45 129.275 10.24 128.615 9.82C127.975 9.4 127.475 8.79 127.115 7.99ZM145.102 22.75C142.362 22.75 140.242 22.04 138.742 20.62C137.262 19.2 136.522 17.28 136.522 14.86C136.522 11.64 137.622 9.03 139.822 7.03C142.042 5.01 144.822 4 148.162 4C150.022 4 151.432 4.42 152.392 5.26C153.352 6.08 153.832 7.17 153.832 8.53C153.832 10.39 152.922 11.94 151.102 13.18C149.302 14.4 146.512 15.02 142.732 15.04C142.792 16.32 143.082 17.33 143.602 18.07C144.122 18.79 144.772 19.15 145.552 19.15C146.332 19.15 147.002 18.89 147.562 18.37C148.142 17.85 148.432 17 148.432 15.82C151.352 15.82 152.812 16.51 152.812 17.89C152.812 19.07 152.092 20.18 150.652 21.22C149.212 22.24 147.362 22.75 145.102 22.75ZM147.652 7.51C146.632 7.51 145.692 8.02 144.832 9.04C143.992 10.06 143.382 11.26 143.002 12.64C145.002 12.48 146.502 12.03 147.502 11.29C148.522 10.53 149.032 9.73 149.032 8.89C149.032 8.49 148.902 8.16 148.642 7.9C148.402 7.64 148.072 7.51 147.652 7.51ZM166.109 7.99C165.369 8.21 164.779 8.53 164.339 8.95C163.899 9.35 163.509 9.93 163.169 10.69C166.549 11.19 168.929 11.91 170.309 12.85C171.689 13.79 172.379 15.13 172.379 16.87C172.379 17.97 172.069 18.93 171.449 19.75C170.829 20.55 170.049 21.16 169.109 21.58C167.269 22.36 165.459 22.75 163.679 22.75C158.619 22.75 156.089 21.66 156.089 19.48C156.089 18.38 156.579 17.28 157.559 16.18C158.059 16.88 158.809 17.48 159.809 17.98C160.829 18.48 161.819 18.73 162.779 18.73C164.439 18.73 165.439 18 165.779 16.54C162.739 16.18 160.539 15.5 159.179 14.5C157.819 13.5 157.139 12.09 157.139 10.27C157.139 8.83 157.609 7.62 158.549 6.64C159.509 5.66 160.689 4.98 162.089 4.6C163.509 4.2 165.099 4 166.859 4C168.639 4 170.099 4.34 171.239 5.02C172.399 5.68 172.979 6.49 172.979 7.45C172.979 8.41 172.639 9.15 171.959 9.67C171.299 10.19 170.569 10.45 169.769 10.45C168.989 10.45 168.269 10.24 167.609 9.82C166.969 9.4 166.469 8.79 166.109 7.99Z" fill="white"/>
</svg>
